<mxfile host="app.diagrams.net" modified="2022-01-06T01:38:27.924Z" agent="5.0 (Windows NT 10.0; Win64; x64) AppleWebKit/537.36 (KHTML, like Gecko) Chrome/96.0.4664.110 Safari/537.36 Edg/96.0.1054.62" etag="0spyKo3LRpnXxiI_-JYF" version="16.2.2" type="github">
  <diagram id="AL8igsMdYoR8tPsZ3z5u" name="第 1 页">
    <mxGraphModel dx="1038" dy="539" grid="1" gridSize="10" guides="1" tooltips="1" connect="1" arrows="1" fold="1" page="1" pageScale="1" pageWidth="4681" pageHeight="3300" math="0" shadow="0">
      <root>
        <mxCell id="0" />
        <mxCell id="1" parent="0" />
        <mxCell id="IW91-Oc3cWGhACDQpKho-3" value="" style="edgeStyle=orthogonalEdgeStyle;rounded=0;orthogonalLoop=1;jettySize=auto;html=1;" edge="1" parent="1" source="IW91-Oc3cWGhACDQpKho-1" target="IW91-Oc3cWGhACDQpKho-2">
          <mxGeometry relative="1" as="geometry" />
        </mxCell>
        <mxCell id="IW91-Oc3cWGhACDQpKho-5" value="" style="edgeStyle=orthogonalEdgeStyle;rounded=0;orthogonalLoop=1;jettySize=auto;html=1;" edge="1" parent="1" source="IW91-Oc3cWGhACDQpKho-1" target="IW91-Oc3cWGhACDQpKho-4">
          <mxGeometry relative="1" as="geometry" />
        </mxCell>
        <mxCell id="IW91-Oc3cWGhACDQpKho-1" value="Spring" style="rounded=0;whiteSpace=wrap;html=1;" vertex="1" parent="1">
          <mxGeometry x="80" y="270" width="110" height="60" as="geometry" />
        </mxCell>
        <mxCell id="IW91-Oc3cWGhACDQpKho-9" value="" style="edgeStyle=orthogonalEdgeStyle;rounded=0;orthogonalLoop=1;jettySize=auto;html=1;" edge="1" parent="1" source="IW91-Oc3cWGhACDQpKho-2" target="IW91-Oc3cWGhACDQpKho-8">
          <mxGeometry relative="1" as="geometry" />
        </mxCell>
        <mxCell id="IW91-Oc3cWGhACDQpKho-2" value="ioc" style="rounded=0;whiteSpace=wrap;html=1;" vertex="1" parent="1">
          <mxGeometry x="270" y="210" width="110" height="60" as="geometry" />
        </mxCell>
        <mxCell id="IW91-Oc3cWGhACDQpKho-4" value="aop" style="rounded=0;whiteSpace=wrap;html=1;" vertex="1" parent="1">
          <mxGeometry x="270" y="320" width="110" height="60" as="geometry" />
        </mxCell>
        <mxCell id="IW91-Oc3cWGhACDQpKho-8" value="" style="rounded=0;whiteSpace=wrap;html=1;" vertex="1" parent="1">
          <mxGeometry x="460" y="210" width="580" height="480" as="geometry" />
        </mxCell>
        <mxCell id="IW91-Oc3cWGhACDQpKho-12" value="" style="edgeStyle=orthogonalEdgeStyle;rounded=0;orthogonalLoop=1;jettySize=auto;html=1;" edge="1" parent="1" source="IW91-Oc3cWGhACDQpKho-10" target="IW91-Oc3cWGhACDQpKho-11">
          <mxGeometry relative="1" as="geometry" />
        </mxCell>
        <mxCell id="IW91-Oc3cWGhACDQpKho-26" style="edgeStyle=orthogonalEdgeStyle;rounded=0;orthogonalLoop=1;jettySize=auto;html=1;exitX=0.5;exitY=0;exitDx=0;exitDy=0;entryX=1;entryY=0.25;entryDx=0;entryDy=0;" edge="1" parent="1" source="IW91-Oc3cWGhACDQpKho-10" target="IW91-Oc3cWGhACDQpKho-18">
          <mxGeometry relative="1" as="geometry" />
        </mxCell>
        <mxCell id="IW91-Oc3cWGhACDQpKho-32" style="edgeStyle=orthogonalEdgeStyle;rounded=0;orthogonalLoop=1;jettySize=auto;html=1;exitX=0.5;exitY=1;exitDx=0;exitDy=0;entryX=1;entryY=0.75;entryDx=0;entryDy=0;" edge="1" parent="1" source="IW91-Oc3cWGhACDQpKho-10" target="IW91-Oc3cWGhACDQpKho-31">
          <mxGeometry relative="1" as="geometry" />
        </mxCell>
        <mxCell id="IW91-Oc3cWGhACDQpKho-10" value="BeanDefinationReader" style="rounded=0;whiteSpace=wrap;html=1;" vertex="1" parent="1">
          <mxGeometry x="480" y="620" width="130" height="60" as="geometry" />
        </mxCell>
        <mxCell id="IW91-Oc3cWGhACDQpKho-11" value="xml" style="rounded=0;whiteSpace=wrap;html=1;" vertex="1" parent="1">
          <mxGeometry x="270" y="620" width="130" height="60" as="geometry" />
        </mxCell>
        <mxCell id="IW91-Oc3cWGhACDQpKho-18" value="yml" style="rounded=0;whiteSpace=wrap;html=1;" vertex="1" parent="1">
          <mxGeometry x="270" y="540" width="130" height="60" as="geometry" />
        </mxCell>
        <mxCell id="IW91-Oc3cWGhACDQpKho-31" value="propertie" style="rounded=0;whiteSpace=wrap;html=1;" vertex="1" parent="1">
          <mxGeometry x="270" y="710" width="130" height="50" as="geometry" />
        </mxCell>
      </root>
    </mxGraphModel>
  </diagram>
</mxfile>
